<svg xmlns="http://www.w3.org/2000/svg" xmlns:xlink="http://www.w3.org/1999/xlink" viewBox="0 0 404.97 581.47">
  <defs>
    <style>
      .bec79544-940a-41df-ae9e-c6f247891cb5 {
        fill: none;
      }

      .a404749f-fd56-443e-8977-e05151013a95, .bf5493d8-47c2-42f2-90b6-27b918338a7a {
        fill: #2c2c2d;
      }

      .a8cc751d-a297-44b3-88fe-f20858cbe638 {
        fill: #fff;
      }

      .a23c4794-4e02-4966-91c3-e34d40711507 {
        fill: #404041;
      }

      .bf5493d8-47c2-42f2-90b6-27b918338a7a {
        font-size: 24px;
        font-family: Shrikhand-Regular, Shrikhand;
      }

      .a9618257-dfb0-4bd4-9041-54792c785f0b {
        fill: #262626;
      }

      .b4c0e00f-b5c2-4a75-bd38-2a4e73723039 {
        fill: #fcfdff;
      }

      .b65525f0-88e2-48a6-a5f4-26c8c772537a {
        fill: #1b1c1c;
      }

      .b21834ef-4b42-4d73-afdf-daa5542a2569 {
        fill: #2d2d2d;
      }

      .fd739db8-2e7d-4a0b-aa93-783bd8ddbfa3 {
        clip-path: url(#fa4d89a6-a7bc-4883-a107-a9074e852ed7);
      }

      .a4f74597-1482-4e37-8f6b-8031a7dd02ab {
        fill: #ffb3d9;
      }

      .e99f287f-a1a3-4a89-8199-66d2d569ff7f {
        fill: #ebe7e2;
      }
    </style>
    <clipPath id="fa4d89a6-a7bc-4883-a107-a9074e852ed7">
      <path class="bec79544-940a-41df-ae9e-c6f247891cb5" d="M270.91,143.35c-10.64,26.37-37.23,55.87-68.34,55.87s-57.71-29.5-68.35-55.87c16.46,2.22,43.81,5.76,67.06,5.76S259.82,145.63,270.91,143.35Z"/>
    </clipPath>
  </defs>
  <g id="a1705b46-cfd2-4ef9-9387-2099d6a86aae" data-name="Layer 2">
    <g id="aca97be9-daca-45d4-9cde-ec9e7fa26c77" data-name="Layer 1">
      <g id="b3cfa353-484d-4da3-b2ae-74fcb47f25bf" data-name="Body">
        <path class="a404749f-fd56-443e-8977-e05151013a95" d="M150.16,240.54H259.67c43.58,0,87.81,35.33,87.81,78.91V558.22a23.24,23.24,0,0,1-23.24,23.25H85.07a23.25,23.25,0,0,1-23.24-23.25V319.45C61.83,273.09,106.58,240.54,150.16,240.54Z"/>
        <g id="e4c5837c-d879-4dbb-8243-fa18636bf79f" data-name="Clock">
          <g>
            <path class="a8cc751d-a297-44b3-88fe-f20858cbe638" d="M204.55,544.26A85.68,85.68,0,0,1,119,458.68V375.21a85.58,85.58,0,0,1,171.16,0v83.47A85.68,85.68,0,0,1,204.55,544.26Z"/>
            <path class="a23c4794-4e02-4966-91c3-e34d40711507" d="M204.55,290.65a84.56,84.56,0,0,1,84.56,84.56v83.47a84.56,84.56,0,0,1-84.56,84.56h0A84.56,84.56,0,0,1,120,458.68V375.21a84.56,84.56,0,0,1,84.56-84.56h0m0-2A86.68,86.68,0,0,0,118,375.21v83.47a86.59,86.59,0,1,0,173.18,0V375.21a86.69,86.69,0,0,0-86.59-86.58Z"/>
          </g>
          <circle class="a404749f-fd56-443e-8977-e05151013a95" cx="204.55" cy="299.73" r="4.2"/>
          <circle class="a404749f-fd56-443e-8977-e05151013a95" cx="204.55" cy="416.95" r="12.8"/>
          <circle class="a404749f-fd56-443e-8977-e05151013a95" cx="257.39" cy="322.54" r="4.2"/>
          <circle class="a404749f-fd56-443e-8977-e05151013a95" cx="280.12" cy="373.87" r="4.2"/>
          <circle class="a404749f-fd56-443e-8977-e05151013a95" cx="280.12" cy="461.63" r="4.2"/>
          <circle class="a404749f-fd56-443e-8977-e05151013a95" cx="259.07" cy="508.31" r="4.2"/>
          <circle class="a404749f-fd56-443e-8977-e05151013a95" cx="204.55" cy="531.17" r="4.2"/>
          <circle class="a404749f-fd56-443e-8977-e05151013a95" cx="152.4" cy="508.31" r="4.2"/>
          <circle class="a404749f-fd56-443e-8977-e05151013a95" cx="129.8" cy="461.63" r="4.2"/>
          <circle class="a404749f-fd56-443e-8977-e05151013a95" cx="129.8" cy="416.95" r="4.2"/>
          <circle class="a404749f-fd56-443e-8977-e05151013a95" cx="129.8" cy="373.87" r="4.2"/>
          <circle class="a404749f-fd56-443e-8977-e05151013a95" cx="149.82" cy="322.54" r="4.2"/>
          <circle class="a404749f-fd56-443e-8977-e05151013a95" cx="280.12" cy="416.95" r="4.2"/>
          <text class="bf5493d8-47c2-42f2-90b6-27b918338a7a" transform="translate(236.35 342.17)">1</text>
          <text class="bf5493d8-47c2-42f2-90b6-27b918338a7a" transform="translate(253.2 381.1)">2</text>
          <text class="bf5493d8-47c2-42f2-90b6-27b918338a7a" transform="translate(253.37 424.18)">3</text>
          <text class="bf5493d8-47c2-42f2-90b6-27b918338a7a" transform="translate(249.17 468.55)">4</text>
          <text class="bf5493d8-47c2-42f2-90b6-27b918338a7a" transform="translate(234.87 504.08)">5</text>
          <text class="bf5493d8-47c2-42f2-90b6-27b918338a7a" transform="translate(194.76 521.85)">6</text>
          <text class="bf5493d8-47c2-42f2-90b6-27b918338a7a" transform="translate(154.3 504.08)">7</text>
          <text class="bf5493d8-47c2-42f2-90b6-27b918338a7a" transform="translate(139.92 468.55)">8</text>
          <text class="bf5493d8-47c2-42f2-90b6-27b918338a7a" transform="translate(139.92 424.18)">9</text>
          <text class="bf5493d8-47c2-42f2-90b6-27b918338a7a" transform="translate(139.92 381.1)">10</text>
          <text class="bf5493d8-47c2-42f2-90b6-27b918338a7a" transform="translate(154.3 342.17)">11</text>
          <text class="bf5493d8-47c2-42f2-90b6-27b918338a7a" transform="translate(189.76 323.46)">12</text>
        </g>
        <g>
          <g>
            <path class="a9618257-dfb0-4bd4-9041-54792c785f0b" d="M135.91,581.47H84A16.49,16.49,0,0,1,67.51,565V513.37A16.49,16.49,0,0,1,84,496.88c6.17,0,12.34,0,18.5,0,7.4,0,11.58,7.2,15.33,12.81a109,109,0,0,0,16.73,19.58,115.36,115.36,0,0,0,9.75,8c3,2.2,6.56,2.77,7.94,6.69.9,2.57.74,5.38.57,8.1-.38,6.16.77,15.42-2.32,20.77A17,17,0,0,1,135.91,581.47Z"/>
            <path class="b4c0e00f-b5c2-4a75-bd38-2a4e73723039" d="M82.77,555.24a11,11,0,0,1-2.52-4,12.38,12.38,0,0,1-.73-4,11.32,11.32,0,0,1,.67-4,10.35,10.35,0,0,1,2.58-4,1.45,1.45,0,0,1,2,0,10.39,10.39,0,0,1,2.59,4,11.3,11.3,0,0,1,.66,4,12.36,12.36,0,0,1-.72,4,10.92,10.92,0,0,1-2.53,4,1.42,1.42,0,0,1-2,0Z"/>
            <path class="b4c0e00f-b5c2-4a75-bd38-2a4e73723039" d="M98.66,556.15a10.92,10.92,0,0,1-2.53-4,12.36,12.36,0,0,1-.72-4,11.39,11.39,0,0,1,.66-4,10.39,10.39,0,0,1,2.59-4,1.46,1.46,0,0,1,2,0,10.35,10.35,0,0,1,2.58,4,11.41,11.41,0,0,1,.67,4,12.38,12.38,0,0,1-.73,4,11,11,0,0,1-2.52,4,1.42,1.42,0,0,1-2,0Z"/>
            <path class="b4c0e00f-b5c2-4a75-bd38-2a4e73723039" d="M116.22,555.24a10.88,10.88,0,0,1-2.52-4,12.12,12.12,0,0,1-.73-4,11.32,11.32,0,0,1,.67-4,10.24,10.24,0,0,1,2.58-4,1.45,1.45,0,0,1,2,0,10.24,10.24,0,0,1,2.58,4,11.32,11.32,0,0,1,.67,4,12.12,12.12,0,0,1-.73,4,10.75,10.75,0,0,1-2.52,4,1.42,1.42,0,0,1-2,0Z"/>
            <path class="b4c0e00f-b5c2-4a75-bd38-2a4e73723039" d="M132.49,555.24a11,11,0,0,1-2.52-4,12.12,12.12,0,0,1-.73-4,11.32,11.32,0,0,1,.67-4,10.24,10.24,0,0,1,2.58-4,1.45,1.45,0,0,1,2,0,10.24,10.24,0,0,1,2.58,4,11.1,11.1,0,0,1,.67,4,12.36,12.36,0,0,1-.72,4,10.92,10.92,0,0,1-2.53,4,1.42,1.42,0,0,1-2,0Z"/>
            <path class="b65525f0-88e2-48a6-a5f4-26c8c772537a" d="M125.62,580.78c-.31-2.66-.44-5.31-.54-8s-.11-5.28-.15-7.91l0-7.9c0-.66,0-1.31,0-2s0-1.31,0-2v-1l-.07-1a15,15,0,0,0-.25-2,9.91,9.91,0,0,1,.82,1.85,19.41,19.41,0,0,1,.53,2,36.21,36.21,0,0,1,.64,4,73.58,73.58,0,0,1,.44,8c0,2.66-.09,5.31-.32,8A61,61,0,0,1,125.62,580.78Z"/>
            <path class="b65525f0-88e2-48a6-a5f4-26c8c772537a" d="M108.79,580.78c-.31-2.66-.45-5.31-.55-8s-.11-5.28-.14-7.91l0-7.9c0-.66,0-1.31,0-2s0-1.31,0-2v-1l-.07-1a13.44,13.44,0,0,0-.25-2,8.76,8.76,0,0,1,.82,1.85,15.23,15.23,0,0,1,.53,2,36.21,36.21,0,0,1,.64,4,71.13,71.13,0,0,1,.44,8c0,2.66-.09,5.31-.31,8A64.66,64.66,0,0,1,108.79,580.78Z"/>
            <path class="b65525f0-88e2-48a6-a5f4-26c8c772537a" d="M90.71,580.78c-.31-2.66-.45-5.31-.54-8s-.11-5.28-.15-7.91l0-7.9c0-.66,0-1.31,0-2s0-1.31,0-2v-1l-.07-1a16.84,16.84,0,0,0-.25-2,9.27,9.27,0,0,1,.81,1.85,17.12,17.12,0,0,1,.54,2,36.21,36.21,0,0,1,.64,4,73.58,73.58,0,0,1,.44,8c0,2.66-.1,5.31-.32,8A62.78,62.78,0,0,1,90.71,580.78Z"/>
          </g>
          <g>
            <path class="a9618257-dfb0-4bd4-9041-54792c785f0b" d="M273.19,581.47H325.1A16.49,16.49,0,0,0,341.59,565V513.37a16.49,16.49,0,0,0-16.49-16.49c-6.17,0-12.34,0-18.5,0-7.4,0-11.58,7.2-15.33,12.81a109.38,109.38,0,0,1-16.73,19.58,117,117,0,0,1-9.75,8c-3,2.2-6.56,2.77-7.94,6.69-.9,2.57-.75,5.38-.58,8.1.39,6.16-.76,15.42,2.33,20.77A17,17,0,0,0,273.19,581.47Z"/>
            <path class="b4c0e00f-b5c2-4a75-bd38-2a4e73723039" d="M324.3,555.24a11,11,0,0,1-2.52-4,12.36,12.36,0,0,1-.72-4,11.08,11.08,0,0,1,.66-4,10.47,10.47,0,0,1,2.58-4,1.46,1.46,0,0,1,2,0,10.35,10.35,0,0,1,2.58,4,11.08,11.08,0,0,1,.66,4,12.1,12.1,0,0,1-.72,4,11,11,0,0,1-2.52,4,1.42,1.42,0,0,1-2,0Z"/>
            <path class="b4c0e00f-b5c2-4a75-bd38-2a4e73723039" d="M308.42,556.15a11,11,0,0,1-2.52-4,12.38,12.38,0,0,1-.73-4,11.41,11.41,0,0,1,.67-4,10.24,10.24,0,0,1,2.58-4,1.46,1.46,0,0,1,2,0,10.24,10.24,0,0,1,2.58,4,11.19,11.19,0,0,1,.67,4,12.36,12.36,0,0,1-.72,4,10.92,10.92,0,0,1-2.53,4,1.42,1.42,0,0,1-2,0Z"/>
            <path class="b4c0e00f-b5c2-4a75-bd38-2a4e73723039" d="M290.86,555.24a10.92,10.92,0,0,1-2.53-4,12.36,12.36,0,0,1-.72-4,11.1,11.1,0,0,1,.67-4,10.24,10.24,0,0,1,2.58-4,1.45,1.45,0,0,1,2,0,10.24,10.24,0,0,1,2.58,4,11.32,11.32,0,0,1,.67,4,12.12,12.12,0,0,1-.73,4,10.88,10.88,0,0,1-2.52,4,1.42,1.42,0,0,1-2,0Z"/>
            <path class="b4c0e00f-b5c2-4a75-bd38-2a4e73723039" d="M274.59,555.24a10.92,10.92,0,0,1-2.53-4,12.36,12.36,0,0,1-.72-4,11.1,11.1,0,0,1,.67-4,10.24,10.24,0,0,1,2.58-4,1.45,1.45,0,0,1,2,0,10.35,10.35,0,0,1,2.58,4,11.32,11.32,0,0,1,.67,4,12.38,12.38,0,0,1-.73,4,11,11,0,0,1-2.52,4,1.42,1.42,0,0,1-2,0Z"/>
            <path class="b65525f0-88e2-48a6-a5f4-26c8c772537a" d="M283.48,580.78a61,61,0,0,1-1.08-7.92c-.23-2.65-.32-5.3-.32-8a73.58,73.58,0,0,1,.44-8,36.21,36.21,0,0,1,.64-4,19.41,19.41,0,0,1,.53-2,9.91,9.91,0,0,1,.82-1.85,15,15,0,0,0-.25,2l-.07,1v1c0,.66,0,1.31,0,2s0,1.31,0,2l0,7.9c0,2.63,0,5.27-.14,7.91S283.79,578.12,283.48,580.78Z"/>
            <path class="b65525f0-88e2-48a6-a5f4-26c8c772537a" d="M300.31,580.78a64.66,64.66,0,0,1-1.08-7.92c-.22-2.65-.31-5.3-.31-8a71.13,71.13,0,0,1,.44-8,36.21,36.21,0,0,1,.64-4,15.23,15.23,0,0,1,.53-2,8.76,8.76,0,0,1,.82-1.85,13.44,13.44,0,0,0-.25,2l-.07,1v1c0,.66,0,1.31,0,2s0,1.31,0,2l0,7.9c0,2.63,0,5.27-.15,7.91S300.62,578.12,300.31,580.78Z"/>
            <path class="b65525f0-88e2-48a6-a5f4-26c8c772537a" d="M318.39,580.78a62.78,62.78,0,0,1-1.08-7.92c-.23-2.65-.31-5.3-.32-8a73.58,73.58,0,0,1,.44-8,36.21,36.21,0,0,1,.64-4,17.12,17.12,0,0,1,.54-2,9.27,9.27,0,0,1,.81-1.85,15,15,0,0,0-.25,2l-.07,1v1c0,.66,0,1.31,0,2s0,1.31,0,2l0,7.9c0,2.63,0,5.27-.15,7.91S318.7,578.12,318.39,580.78Z"/>
          </g>
          <g>
            <path class="a9618257-dfb0-4bd4-9041-54792c785f0b" d="M69.54,319.43c-10.6,25.25-4.69,51.81,13.2,59.32,6.4,2.68,13.22,2.07,19.81.06,3.25-1,6.69-2.91,8.51-5.89,2.17-3.55.62-8.55-.49-12.28A12.43,12.43,0,0,0,116,344.46c3.1-1.15,4.89-4.42,5.82-7.59s1.23-11.12,1.23-11.12,6.36-4,8.18-7.14c3.58-6.29,1.61-14.59-2.92-20.25a27.6,27.6,0,0,0-8.75-7.17,28.33,28.33,0,0,0-29.91,1.87C80.62,299.67,73.85,309.17,69.54,319.43Z"/>
            <path class="a8cc751d-a297-44b3-88fe-f20858cbe638" d="M104.39,366.57a9.69,9.69,0,0,1-4.47,2.14,7.05,7.05,0,0,1-3.68-.3,7.76,7.76,0,0,1-3.09-2,10.41,10.41,0,0,1-2.37-4.27,1.81,1.81,0,0,1,.64-1.93,10.26,10.26,0,0,1,4.44-2,7.74,7.74,0,0,1,3.7.2,6.93,6.93,0,0,1,3.13,1.94,9.54,9.54,0,0,1,2.33,4.37A1.86,1.86,0,0,1,104.39,366.57Z"/>
            <path class="a8cc751d-a297-44b3-88fe-f20858cbe638" d="M107.89,348.75a10.73,10.73,0,0,1-4.91,2.41,8.35,8.35,0,0,1-4.15-.24,9.26,9.26,0,0,1-3.6-2.11,11.35,11.35,0,0,1-2.91-4.54,1.84,1.84,0,0,1,.59-2.08,11.58,11.58,0,0,1,4.88-2.3A9.43,9.43,0,0,1,102,340a8.23,8.23,0,0,1,3.64,2,10.8,10.8,0,0,1,2.88,4.65A1.93,1.93,0,0,1,107.89,348.75Z"/>
            <path class="a8cc751d-a297-44b3-88fe-f20858cbe638" d="M115.67,332.25a10.71,10.71,0,0,1-4.9,2.41,8.35,8.35,0,0,1-4.15-.24,9.29,9.29,0,0,1-3.61-2.11,11.56,11.56,0,0,1-2.91-4.54,1.85,1.85,0,0,1,.6-2.08,11.37,11.37,0,0,1,4.88-2.29,9.25,9.25,0,0,1,4.17.12,8.33,8.33,0,0,1,3.64,2,10.77,10.77,0,0,1,2.88,4.65A1.91,1.91,0,0,1,115.67,332.25Z"/>
            <path class="a8cc751d-a297-44b3-88fe-f20858cbe638" d="M122.32,319.86a8.89,8.89,0,0,1-4.39.18,8.6,8.6,0,0,1-3.32-1.42,9.82,9.82,0,0,1-4.15-6.61,1.43,1.43,0,0,1,1.05-1.59,9.75,9.75,0,0,1,7.71,1.24,8.64,8.64,0,0,1,2.61,2.51,9,9,0,0,1,1.54,4.11A1.46,1.46,0,0,1,122.32,319.86Z"/>
          </g>
          <g>
            <path class="a9618257-dfb0-4bd4-9041-54792c785f0b" d="M337.78,320.23c10.41,24.81,4.35,51-13.54,58.52-6.4,2.68-13.2,2.12-19.75.19-3.24-1-6.66-2.83-8.46-5.75-2.14-3.49-.57-8.42.57-12.11a12,12,0,0,1-5.34-15.9c-3.08-1.12-4.85-4.32-5.76-7.44-2.07-4.82-.35-11.18-.35-11.18s-6.88-1.56-8.91-6.74c-3.54-6.18-1.52-14.37,3-20a28.2,28.2,0,0,1,8.78-7.12c9.67-5.05,21.22-4.53,29.82,1.66C326.85,300.84,333.55,310.15,337.78,320.23Z"/>
            <path class="a8cc751d-a297-44b3-88fe-f20858cbe638" d="M299.34,366.11a9.5,9.5,0,0,1,2.57-4.24,7,7,0,0,1,3.23-1.76,7.76,7.76,0,0,1,3.71,0,10.16,10.16,0,0,1,4.32,2.28,1.77,1.77,0,0,1,.52,2,10.42,10.42,0,0,1-2.59,4.14,7.87,7.87,0,0,1-3.21,1.86,7,7,0,0,1-3.68.1,9.64,9.64,0,0,1-4.35-2.38A1.87,1.87,0,0,1,299.34,366.11Z"/>
            <path class="a8cc751d-a297-44b3-88fe-f20858cbe638" d="M296.87,348a10.8,10.8,0,0,1,3.13-4.49,8.34,8.34,0,0,1,3.75-1.79,9.23,9.23,0,0,1,4.17.11,11.41,11.41,0,0,1,4.75,2.56,1.86,1.86,0,0,1,.48,2.11A11.59,11.59,0,0,1,310,350.9a9.25,9.25,0,0,1-3.72,1.91,8.32,8.32,0,0,1-4.15,0,10.71,10.71,0,0,1-4.77-2.68A1.91,1.91,0,0,1,296.87,348Z"/>
            <path class="a8cc751d-a297-44b3-88fe-f20858cbe638" d="M290,331.12a10.83,10.83,0,0,1,3.13-4.48,8.31,8.31,0,0,1,3.74-1.79,9.27,9.27,0,0,1,4.18.1,11.47,11.47,0,0,1,4.74,2.57,1.84,1.84,0,0,1,.49,2.11,11.46,11.46,0,0,1-3.16,4.36,9.28,9.28,0,0,1-3.72,1.92,8.44,8.44,0,0,1-4.15,0,10.91,10.91,0,0,1-4.77-2.68A1.93,1.93,0,0,1,290,331.12Z"/>
            <path class="a8cc751d-a297-44b3-88fe-f20858cbe638" d="M283.58,318.86a9,9,0,0,1,1.77-4,8.65,8.65,0,0,1,2.74-2.36,9.76,9.76,0,0,1,7.76-.81,1.42,1.42,0,0,1,1,1.64,9.78,9.78,0,0,1-4.5,6.38,8.77,8.77,0,0,1-3.4,1.23,9,9,0,0,1-4.37-.42A1.46,1.46,0,0,1,283.58,318.86Z"/>
          </g>
        </g>
      </g>
      <g id="f54a29f8-a5eb-4c9c-a188-d12a007594b8" data-name="Head">
        <path class="a404749f-fd56-443e-8977-e05151013a95" d="M311.57,16.05C291.18-3.51,246,.3,202.48.3,157.39.3,106.25-3.51,90.37,19.44a135,135,0,0,0-29.27,88c2.08,70.94,65.49,146.22,141.38,142.3,76.36-3.95,139.88-70.23,141.39-142.3A137.12,137.12,0,0,0,311.57,16.05ZM185,74.34c-.68,25.88-21,46.88-46.88,46.88s-48.65-21-46.88-46.88c.56-8.06,4.42-15.74,9.1-22.18C112.2,35.87,132.1,23.47,152.49,30,171.14,36.06,185.55,54.47,185,74.34Zm80.45,46.88c-25.89,0-46.2-21-46.88-46.88-.33-12.93,5.81-25.34,15.16-34.05,14.51-13.53,34-15.71,50.82-5.41,13.36,8.18,26.66,23.11,27.78,39.46C314.13,100.17,291.37,121.22,265.48,121.22Z"/>
        <circle class="a9618257-dfb0-4bd4-9041-54792c785f0b" cx="202.57" cy="114.1" r="24.98"/>
        <path class="a8cc751d-a297-44b3-88fe-f20858cbe638" d="M314.34,125.72c-17.53,43.42-61.3,74.19-112.52,74.19s-95-30.77-112.53-74.19c27.1,3.65,55.45,3.4,84.8,0,.23,0,2,3,2.26,3.31.81,1.07,1.66,2.1,2.57,3.09a35.9,35.9,0,0,0,19.71,11.11c10.08,2.11,20.74-3.88,27.11-11.35a44.53,44.53,0,0,0,5.18-7.65C266.55,127.31,296.07,129.47,314.34,125.72Z"/>
        <path class="b21834ef-4b42-4d73-afdf-daa5542a2569" d="M270.91,143.35c-10.64,26.37-37.23,45.06-68.34,45.06s-57.71-18.69-68.35-45.06c16.46,2.22,43.81,5.76,67.06,5.76S259.82,145.63,270.91,143.35Z"/>
        <g class="fd739db8-2e7d-4a0b-aa93-783bd8ddbfa3">
          <rect class="a4f74597-1482-4e37-8f6b-8031a7dd02ab" x="178.87" y="125.72" width="48.68" height="71.57" rx="24.34"/>
        </g>
        <g id="a4f83d99-3944-4831-8d8c-4f77edc3c2a8" data-name="Bone-Tie">
          <path class="e99f287f-a1a3-4a89-8199-66d2d569ff7f" d="M202.72,216.33c25.14,0,21.82-16.42,74.77-14.28v52.7c-48.55,5.16-52.43-16.79-74.77-14.21C180.38,238,176.5,259.91,128,254.75v-52.7C180.9,199.91,177.58,216.33,202.72,216.33Z"/>
          <circle class="e99f287f-a1a3-4a89-8199-66d2d569ff7f" cx="271" cy="213.28" r="19.6"/>
          <circle class="e99f287f-a1a3-4a89-8199-66d2d569ff7f" cx="271" cy="243.09" r="19.6"/>
          <circle class="e99f287f-a1a3-4a89-8199-66d2d569ff7f" cx="134.44" cy="213.28" r="19.6"/>
          <circle class="e99f287f-a1a3-4a89-8199-66d2d569ff7f" cx="134.44" cy="243.09" r="19.6"/>
        </g>
        <g id="ee681c69-9f15-44cf-b66d-cfd198522d0e" data-name="Ears">
          <path class="a404749f-fd56-443e-8977-e05151013a95" d="M377.48,68.13,356.13,46.31c-5.87-6-12-11.78-17-18.59-2.82-3.87-5.19-8.17-8.67-11.52-4.72-4.54-11-6.85-17-9-14-5.11-36.13-6-43.92-5C283.18,8.76,297.44,10.49,307,22.4c11.24,14.07,19.1,30.68,25.21,47.53a308.38,308.38,0,0,1,12.4,45.17c1.25,6.29,1.88,12.14,2.61,18.45l0-.26,9,70.05c.79,6.14,4.14,14.22,10.17,12.83,3.78-.87,5.58-5.44,5.17-9.29s-2.35-7.38-3.39-11.12c-3.75-13.52,4.56-27.34,13.69-38s19.93-21.15,22.51-34.95C408.27,102,392.28,83.25,377.48,68.13Z"/>
          <path class="a404749f-fd56-443e-8977-e05151013a95" d="M27.49,68.13,48.83,46.31c5.87-6,12.05-11.78,17-18.59C68.65,23.85,71,19.55,74.5,16.2c4.73-4.54,11-6.85,17-9,14-5.11,36.13-6,43.92-5C121.79,8.76,107.53,10.49,98,22.4,86.77,36.47,78.91,53.08,72.79,69.93a310.89,310.89,0,0,0-12.4,45.17c-1.24,6.29-1.87,12.14-2.61,18.45l0-.26-9,70.05c-.78,6.14-4.13,14.22-10.16,12.83-3.78-.87-5.59-5.44-5.17-9.29s2.34-7.38,3.38-11.12c3.76-13.52-4.55-27.34-13.68-38S3.18,136.6.59,122.8C-3.3,102,12.69,83.25,27.49,68.13Z"/>
        </g>
      </g>
    </g>
  </g>
</svg>
