<svg xmlns="http://www.w3.org/2000/svg" viewBox="0 0 235.55 107.11">
  <defs>
    <style>
      .b9099c9d-a05f-45c0-889c-421bbd1fd307 {
        fill: #fff;
      }

      .a84e863c-9705-4c76-882d-6ab1aaf6eceb {
        fill: #404041;
      }
    </style>
  </defs>
  <g id="e8398a77-549a-4546-b891-1f0207de8f31" data-name="Layer 2">
    <g id="bbeb604c-724c-4890-82cc-e9cb5f13e344" data-name="Layer 1">
      <g id="a7b61af2-4741-4914-b8ec-a6bfe781ece5" data-name="Eyes">
        <g>
          <path class="b9099c9d-a05f-45c0-889c-421bbd1fd307" d="M.11,53.1c-2,29.76,24.18,54,54,54s53.22-24.19,54-54c.6-22.89-16-44.1-37.49-51-23.49-7.57-46.4,6.71-60,25.48C5.2,35,.75,43.81.11,53.1Z"/>
          <circle class="a84e863c-9705-4c76-882d-6ab1aaf6eceb" cx="54.07" cy="53.16" r="22.58"/>
        </g>
        <g>
          <path class="b9099c9d-a05f-45c0-889c-421bbd1fd307" d="M235.44,53.1c2,29.76-24.18,54-54,54s-53.22-24.19-54-54c-.39-14.89,6.69-29.19,17.46-39.23C161.6-1.72,184.08-4.22,203.44,7.64,218.83,17.07,234.15,34.26,235.44,53.1Z"/>
          <circle class="a84e863c-9705-4c76-882d-6ab1aaf6eceb" cx="181.48" cy="53.16" r="22.58"/>
        </g>
      </g>
    </g>
  </g>
</svg>
