<svg xmlns="http://www.w3.org/2000/svg" viewBox="0 0 102.31 395.56">
  <defs>
    <style>
      .a93c25b5-b54e-4101-a275-0c36cf165cf1 {
        fill: #2c2c2d;
      }
    </style>
  </defs>
  <g id="fb128f08-ab4b-4a41-ae7e-132fbc83bb42" data-name="Layer 2">
    <g id="ed23ce43-0cb3-4ec5-9b64-3498a5ec301b" data-name="Layer 1">
      <path id="f49e1a50-bd62-4652-a863-a9433d74b8fb" data-name="Tail" class="a93c25b5-b54e-4101-a275-0c36cf165cf1" d="M9.15,15.2c-.71,4.88-.09,10.42-.41,14.28L3.43,94.55c-2.51,30.87-5,61.85-2.13,92.7S12.73,249,31.11,276.06C38,286.28,46.37,296,51.52,306.86a59.59,59.59,0,0,1,.19,50.74c-7.49,16.18-22.48,30-41.28,38C36.77,394,62.12,383.4,79.11,366.9s25.37-38.68,22.73-60.1C97.51,271.73,66,242.64,56.38,208.29,48.75,181.14,55.33,152.68,65,126S87.42,73.09,92.52,45.55c1.92-10.4,2.51-21.72-4.19-30.7C80.88,4.88,65.76.1,51.43,0,41.48-.06,22.14,1.19,14,6.37,11,8.27,9.68,11.55,9.15,15.2Z"/>
    </g>
  </g>
</svg>
