<?xml version="1.0" encoding="UTF-8"?>
<svg id="Layer_2" data-name="Layer 2" xmlns="http://www.w3.org/2000/svg" viewBox="0 0 207.46 204">
  <defs>
    <style>
      .cls-1 {
        fill-rule: evenodd;
      }
    </style>
  </defs>
  <g id="Layer_1-2" data-name="Layer 1">
    <path class="cls-1" d="M103.81,0C46.41,0,0,46.75,0,104.59c0,46.23,29.73,85.36,70.99,99.22,5.16,1.04,7.05-2.25,7.05-5.02,0-2.42-.17-10.74-.17-19.39-28.88,6.23-34.89-12.47-34.89-12.47-4.64-12.12-11.52-15.24-11.52-15.24-9.45-6.41.69-6.41.69-6.41,10.48.69,15.99,10.74,15.99,10.74,9.28,15.93,24.23,11.43,30.25,8.66.86-6.75,3.61-11.43,6.53-14.02-23.03-2.42-47.27-11.43-47.27-51.6,0-11.43,4.12-20.78,10.65-28.05-1.03-2.6-4.64-13.33,1.03-27.71,0,0,8.77-2.77,28.53,10.74,8.46-2.29,17.19-3.45,25.95-3.46,8.77,0,17.7,1.21,25.95,3.46,19.77-13.51,28.53-10.74,28.53-10.74,5.67,14.37,2.06,25.11,1.03,27.71,6.7,7.27,10.66,16.62,10.66,28.05,0,40.17-24.23,49-47.44,51.6,3.78,3.29,7.05,9.52,7.05,19.39,0,14.02-.17,25.28-.17,28.74,0,2.77,1.89,6.06,7.05,5.02,41.25-13.85,70.99-52.99,70.99-99.22C207.63,46.75,161.05,0,103.81,0Z"/>
  </g>
</svg>