<?xml version="1.0" encoding="UTF-8"?>
<svg id="Layer_2" data-name="Layer 2" xmlns="http://www.w3.org/2000/svg" viewBox="0 0 139.35 375.5">
  <defs>
    <style>
      .cls-1 {
        fill: #1e1e1e;
      }
    </style>
  </defs>
  <g id="Layer_1-2" data-name="Layer 1">
    <path class="cls-1" d="M.82,192.37c1.1,18.48,2.8,32.88,5.68,50.33,10.38,63.03,39.32,93.54,92.03,123.82,13.54,7.78,19.86,12.26,31.87,6.1,11.48-5.89,9.41-21.74,7.32-33.28-2.09-11.54-11.42-23.49-19.54-32.3-8.12-8.81-16.59-11.35-24.07-21.13-18.29-23.95-17.38-44.98-15.93-78.76s7.51-84.5,14.85-121.43c1.9-9.56,2.98-19.62,4.68-29.03,1.36-7.55,3.92-17.3,2.85-24.87-.48-3.44-2.22-6.03-3.97-7.95C84.53,10.63,71.97.36,53.78,0c-11.91-.23-20.69,4.56-30,11.86-4.74,3.72-8.63,8.08-12.32,14.15-3.69,6.06-5.07,9.46-5.56,18.66C3.39,92.67-2.06,144.07.82,192.37Z"/>
  </g>
</svg>